PathFileType	4	(X/Y/Z)	./resultDataOpenSim/trcMotMarkerGrf/sub10/qtm-01-01.trc
DataRate	CameraRate	NumFrames	NumMarkers	Units	OrigDataRate	OrigDataStartFrame	OrigNumFrames
250.000000	250.000000	7	24	m	250.000000	120	479
Frame#	Time	L.Toe.Tip			R.Toe.Tip			L.Ankle.Lat			R.Ankle.Lat			L.Ankle.Med			R.Ankle.Med			L.Heel			R.Heel			L.Knee.Lat			R.Knee.Lat			L.Knee.Med			R.Knee.Med			L.Thigh.Upper			R.Thigh.Upper			L.ASIS			R.ASIS			V.Sacral			L.Acromium			R.Acromium			C7			L.Elbow			R.Elbow			L.Wrist.Lat			R.Wrist.Lat
		X1	Y1	Z1	X2	Y2	Z2	X3	Y3	Z3	X4	Y4	Z4	X5	Y5	Z5	X6	Y6	Z6	X7	Y7	Z7	X8	Y8	Z8	X9	Y9	Z9	X10	Y10	Z10	X11	Y11	Z11	X12	Y12	Z12	X13	Y13	Z13	X14	Y14	Z14	X15	Y15	Z15	X16	Y16	Z16	X17	Y17	Z17	X18	Y18	Z18	X19	Y19	Z19	X20	Y20	Z20	X21	Y21	Z21	X22	Y22	Z22	X23	Y23	Z23	X24	Y24	Z24

120	0.476	-0.34858772	0.076830641	-0.14879102	-0.68586256	0.04093883	-0.018565585	-0.48459715	0.075251898	-0.14751583	-0.82257239	0.050996125	0.023704574	-0.46152139	0.10280393	-0.068636497	-0.81065311	0.084398452	-0.058696535	-0.53120733	0.035081641	-0.087331922	-0.87720272	0.027693674	-0.022825827	-0.51911716	0.46494406	-0.17809107	-0.7457767	0.44732345	0.087445805	-0.48908701	0.44611606	-0.060118177	-0.74944363	0.45439171	-0.045033072	-0.65403569	0.82375516	-0.23350014	-0.69963829	0.86245974	0.14264581	-0.61417398	0.93732143	-0.16800716	-0.62456239	0.94854891	0.077770087	-0.81796574	0.95140642	-0.062119419	-0.66750807	1.4113554	-0.20310821	-0.70556222	1.4036623	0.12160204	-0.76944139	1.4410002	-0.05086068	-0.77430407	1.0806334	-0.26723138	-0.75470293	1.0487568	0.16233584	-0.63822922	0.8755219	-0.26128205	-0.57786088	0.87867182	0.19090432
121	0.48	-0.33238354	0.080141806	-0.14743365	-0.68577798	0.040800315	-0.0186247	-0.46841114	0.075217835	-0.14747887	-0.82252611	0.051093104	0.02360766	-0.44649909	0.1036158	-0.068449349	-0.81051791	0.084310527	-0.058969608	-0.51411226	0.033870601	-0.087679572	-0.87718647	0.027757128	-0.022915141	-0.51359453	0.46393563	-0.17862026	-0.7432723	0.44695979	0.086954558	-0.48397196	0.44533209	-0.060205222	-0.74673475	0.45407705	-0.04552986	-0.64872679	0.8233181	-0.23389117	-0.69633333	0.86181501	0.14296544	-0.60831778	0.93677095	-0.16796964	-0.62009735	0.94783075	0.077796369	-0.81273454	0.95091476	-0.06206007	-0.66226582	1.410581	-0.20317128	-0.70094082	1.403111	0.12146828	-0.76470948	1.4403131	-0.051688249	-0.77004425	1.0803936	-0.26741495	-0.74855542	1.0477501	0.1624296	-0.63567341	0.87418074	-0.2620109	-0.56881061	0.87981209	0.1898361
122	0.484	-0.31645344	0.083739454	-0.14601044	-0.68568853	0.040658312	-0.018682629	-0.45238839	0.075327443	-0.14741868	-0.8224969	0.051206657	0.023501343	-0.43171891	0.10458891	-0.068288077	-0.81037905	0.084225003	-0.059221562	-0.49705435	0.032692521	-0.088208006	-0.87717229	0.027827511	-0.023013808	-0.50807498	0.46287085	-0.17916911	-0.74071658	0.44657661	0.086445136	-0.47889916	0.44443598	-0.060277793	-0.74394993	0.4537334	-0.046033792	-0.64375624	0.8227903	-0.23441502	-0.69293518	0.86120034	0.14319937	-0.60267075	0.93615329	-0.16797789	-0.61525527	0.94713662	0.077867031	-0.80781542	0.95024813	-0.061577608	-0.65707835	1.4097686	-0.20325336	-0.69631152	1.4025031	0.12132846	-0.76007972	1.4395855	-0.052624932	-0.76586494	1.0801002	-0.26759188	-0.742268	1.0467456	0.16274397	-0.63310119	0.87282365	-0.26275334	-0.5599401	0.88099315	0.18885462
123	0.488	-0.30084364	0.087598265	-0.14453614	-0.68559978	0.040496035	-0.018754634	-0.43654994	0.075596992	-0.14736335	-0.8224706	0.051329369	0.023383343	-0.41725647	0.10570653	-0.068201573	-0.81023533	0.084139698	-0.059460224	-0.48015523	0.031635544	-0.088894294	-0.87715697	0.027904135	-0.02312064	-0.50252766	0.46176157	-0.17972456	-0.73810544	0.44616837	0.085920241	-0.47393634	0.44345175	-0.060414495	-0.74107752	0.45335481	-0.046535367	-0.63865157	0.82223336	-0.2348998	-0.68930497	0.86059243	0.14318823	-0.59716274	0.93547687	-0.16801403	-0.61029265	0.94643111	0.077958415	-0.80293987	0.9492862	-0.061200418	-0.65191233	1.4089255	-0.20334026	-0.69166262	1.4018508	0.12118415	-0.75555877	1.4388379	-0.053545708	-0.76170517	1.0797463	-0.26778599	-0.73589038	1.0457344	0.16318031	-0.6305276	0.87143856	-0.26351425	-0.55119349	0.88219642	0.18794921
124	0.492	-0.28559623	0.091671319	-0.14303717	-0.68551335	0.040325279	-0.018841138	-0.42095027	0.076058008	-0.14739649	-0.82242683	0.051448098	0.023251836	-0.40318699	0.10693014	-0.068254881	-0.81007261	0.084053948	-0.05969292	-0.46359483	0.030840439	-0.089697463	-0.8771355	0.027988178	-0.023232594	-0.49692731	0.46061268	-0.18026921	-0.7354094	0.4457319	0.085395021	-0.4691295	0.44239453	-0.060645536	-0.73809564	0.45294407	-0.047038283	-0.63318362	0.82165136	-0.23525136	-0.68550157	0.85996388	0.14300298	-0.59164208	0.93474907	-0.16804514	-0.60544083	0.94568804	0.078033125	-0.79746745	0.94783941	-0.061484605	-0.6466573	1.4080573	-0.20341515	-0.68697248	1.4011662	0.1210324	-0.75100595	1.4380977	-0.054259465	-0.75736912	1.0793425	-0.26802911	-0.72947362	1.0447063	0.16362496	-0.62797029	0.87001539	-0.26428039	-0.54248842	0.88338795	0.18706215
125	0.496	-0.27072857	0.095924104	-0.14154589	-0.68542305	0.040174261	-0.018924172	-0.40566778	0.076738541	-0.14761284	-0.82235545	0.05155231	0.02310574	-0.38950702	0.10822276	-0.06846876	-0.80987899	0.083965562	-0.05992821	-0.44745597	0.030353669	-0.090619499	-0.87710411	0.028084066	-0.023349643	-0.49130423	0.45942757	-0.1807639	-0.73260998	0.44527143	0.084873938	-0.46445604	0.44126216	-0.060924269	-0.73499065	0.45250556	-0.047554855	-0.62749934	0.82099168	-0.23548219	-0.68161097	0.85929361	0.14273631	-0.58602793	0.93397874	-0.16806168	-0.60079167	0.94489674	0.078073336	-0.79129617	0.94590352	-0.06270291	-0.64122191	1.4071609	-0.20347061	-0.68223804	1.4004505	0.12087365	-0.74595495	1.4373859	-0.054285941	-0.75268445	1.0789191	-0.26826172	-0.72301731	1.0436509	0.16401026	-0.62544241	0.86856373	-0.26503427	-0.53378186	0.884554	0.18614207
126	0.5	-0.25624309	0.10032725	-0.14009149	-0.68531782	0.040051941	-0.018985889	-0.39074108	0.07764234	-0.14804109	-0.82226142	0.05164057	0.022946892	-0.37615491	0.10957076	-0.068809682	-0.80965655	0.083870912	-0.060171938	-0.43174761	0.030146304	-0.091708716	-0.87706289	0.028196189	-0.023472038	-0.4857236	0.45821335	-0.18116036	-0.72977767	0.44479213	0.084333839	-0.45984678	0.44005058	-0.061177952	-0.73177487	0.45203981	-0.048087993	-0.6219125	0.82019014	-0.23566398	-0.67766697	0.85857387	0.14241818	-0.5803318	0.93317275	-0.16807616	-0.5963103	0.9440622	0.078084424	-0.7851052	0.94389544	-0.064417278	-0.63567926	1.4062273	-0.20351739	-0.67748272	1.3996965	0.12071487	-0.74005119	1.4366695	-0.05336561	-0.74776454	1.0785091	-0.26830489	-0.71648422	1.0425481	0.16429791	-0.62294438	0.86710692	-0.26577063	-0.52507298	0.88570197	0.18516377
